/* XPM */
static char *result[] = {
/* columns rows colors chars-per-pixel */
"32 32 7 1 ",
"  c #222222",
". c #DA4E38",
"X c #9F294E",
"o c #417089",
"O c #72D6CE",
"+ c #FDF7ED",
"@ c None",
/* pixels */
"@@@@@@@@@@@@@@@@@@@@@@@@@@@@@@@@",
"@@@@@@@@@@@@@@@@@@@@@@@@@@@@@@@@",
"@@@@@@@@@@@@@@@@@@@@@@@@@@@@@@@@",
"@@@@@@@@@@@@      @@  @@@@@@@@@@",
"@@@@@@@@@@@@ ooooo  + @@@@@@@@@@",
"@@@@@@@@@@@@ oOOOOOO+ @@@@@@@@@@",
"@@@@@@@@@@@@ oOOOOOO+ @@@@@@@@@@",
"@@@@@@@@@@@@ oOOOOOO+ @@@@@@@@@@",
"@@@@@@@@@@@@ oOOOOOO+ @@@@@@@@@@",
"@@@@@@@@@@@@ oO       @@@@@@@@@@",
"@@@@@@@@@@@@ oOOOO  + @@@@@@@@@@",
"@@@          oOOOO  +        @@@",
"@@@ XXX.....   ooo  O .... + @@@",
"@@@ XX....... o       ... ++ @@@",
"@@@ XX.......X      .... O++ @@@",
"@@@ XX.......XXXXXX....  O++ @@@",
"@@@ XX.......XXX...... + O++ @@@",
"@@@ XXX.....XXX.....  ++ O++ @@@",
"@@@ XXXXXXXXX.....  OO++     @@@",
"@@@ XXXXXXX.....  OOOO++ X @@@@@",
"@@@ XXXXX.....  oooOOoOO X @@@@@",
"@@@ XXX....   OOOOOOOO++ X @@@@@",
"@@ XXXX.... ooOOOOOOOO++ X @@@@@",
"@@ XXX.... ooOOOOOOOOO++ X @@@@@",
"@@ XXX.... oooooooooooOO X @@@@@",
"@@ XXX... ooOOOOOOOOOO++ X @@@@@",
"@@ XXX... ooooooooooooOO X. @@@@",
"@@ XXX.. ooOOOOOOOOOOO++ X. @@@@",
"@ XXXXX oooOOOOOOOOOOO++ X. @@@@",
"@ XXXX  oooOOOOOOOOOOO++ X. @@@@",
"@ XXX XX ooo        ooo XXX @@@@",
"@                           @@@@"
};
